<svg xmlns="http://www.w3.org/2000/svg" width="63" height="41" fill="none" viewBox="0 0 63 41">
  <g clip-path="url(#clip0_287:252)">
    <path fill="#fff" fill-rule="evenodd" d="M38.26 39.805c-1.962 0-4.111-.609-3.526-3.013.543-2.237 3.013-1.587 4.733-1.81v-1.029c-2.755-.503-6.16.315-6.032 3.629.129 3.313 3.341 3.55 6.054 3.37l-.086-4.104h-3.098v1.181h1.956v1.776zM24.647 35.163c1.956-.462 3.99.58 3.57 2.796-.421 2.216-2.856 1.79-4.719 1.867v1.139c2.734.175 6.018-.133 5.982-3.572-.035-3.44-3.398-3.495-6.04-3.495v4.194l3.242-.077-.086-1.084-1.956-.195.007-1.573zM49.183 40.965v-1.02c-1.028-.4-3.526-.203-4.79-.12v1.161l4.79-.021zM18.594 40.944l-.065-1.097c-1.22-.084-3.719-.28-4.775.118l.078 1.049 4.762-.07zM18.594 34.988l-.022-1.084-1.042-.042h-3.776l.064 1.189 3.712.007 1.064-.07zM44.393 35.037l4.819.014v-1.195l-4.848.09.03 1.091zM44.393 38.015l4.812-.028-.05-1.132h-4.74l-.022 1.16zM13.804 38.029l4.804-.063-.1-1.132-4.733.125.029 1.07zM.603 0h23.508s5.454 1.042 5.711 7.34H5.636S-.71 5.243.64 0M5.708 11.115h19.403s4.498 1.077 4.69 7.536H9.864s-5.24-2.132-4.155-7.536zM14.975 22.817h11.943s2.776.951 2.884 6.544H17.559s-3.22-1.853-2.556-6.558M62.361 0H38.846s-5.447 1.042-5.71 7.34h24.192s6.34-2.097 5.033-7.34M57.257 11.115H37.854s-4.497 1.077-4.69 7.536h19.938s5.233-2.132 4.155-7.536M47.984 22.817H36.048s-2.784.951-2.884 6.544H45.4s3.226-1.853 2.555-6.558" clip-rule="evenodd"/>
  </g>
  <defs>
    <clipPath id="clip0_287:252">
      <path fill="#fff" d="M0 0h62.114v41H0z" transform="translate(.426)"/>
    </clipPath>
  </defs>
</svg>
